<?xml version="1.0" encoding="utf-8"?>
<svg version="1.1" xmlns:xlink="http://www.w3.org/1999/xlink" width="44px" height="44px" xmlns="http://www.w3.org/2000/svg">
  <defs>
    <mask fill="white" id="clip1">
      <path d="M 0 39  L 0 5  C 0 2.1999999999999886  2.2000000000000455 0  5 0  L 39 0  C 41.799999999999955 0  44 2.1999999999999886  44 5  L 44 39  C 44 41.80000000000001  41.799999999999955 44  39 44  L 23 44  L 13 44  L 5 44  C 2.2000000000000455 44  0 41.80000000000001  0 39  Z " fill-rule="evenodd" />
    </mask>
  </defs>
  <g transform="matrix(1 0 0 1 -814 -264 )">
    <path d="M 0 39  L 0 5  C 0 2.1999999999999886  2.2000000000000455 0  5 0  L 39 0  C 41.799999999999955 0  44 2.1999999999999886  44 5  L 44 39  C 44 41.80000000000001  41.799999999999955 44  39 44  L 23 44  L 13 44  L 5 44  C 2.2000000000000455 44  0 41.80000000000001  0 39  Z " fill-rule="nonzero" fill="#ffffff" stroke="none" transform="matrix(1 0 0 1 814 264 )" />
    <path d="M 0 39  L 0 5  C 0 2.1999999999999886  2.2000000000000455 0  5 0  L 39 0  C 41.799999999999955 0  44 2.1999999999999886  44 5  L 44 39  C 44 41.80000000000001  41.799999999999955 44  39 44  L 23 44  L 13 44  L 5 44  C 2.2000000000000455 44  0 41.80000000000001  0 39  Z " stroke-width="2" stroke="#797979" fill="none" transform="matrix(1 0 0 1 814 264 )" mask="url(#clip1)" />
  </g>
</svg>