<?xml version="1.0" encoding="utf-8"?>
<svg version="1.1" xmlns:xlink="http://www.w3.org/1999/xlink" width="22px" height="18px" xmlns="http://www.w3.org/2000/svg">
  <g transform="matrix(1 0 0 1 -713 -268 )">
    <path d="M 21.60258064516129 2.4848484848484853  C 21.867526881720433 2.7676767676767673  22.000000000000004 3.1111111111111107  22 3.515151515151515  C 22.000000000000004 3.9191919191919173  21.867526881720433 4.262626262626261  21.60258064516129 4.545454545454545  L 11.326451612903227 15.515151515151514  L 9.396129032258065 17.575757575757574  C 9.131182795698926 17.858585858585858  8.809462365591399 18  8.430967741935484 18  C 8.05247311827957 18  7.730752688172044 17.858585858585858  7.465806451612903 17.575757575757574  L 5.535483870967742 15.515151515151514  L 0.3974193548387097 10.030303030303031  C 0.13247311827957003 9.747474747474746  0 9.404040404040401  0 9  C 0 8.595959595959595  0.13247311827957003 8.252525252525253  0.3974193548387097 7.969696969696971  L 2.327741935483871 5.909090909090909  C 2.592688172043011 5.626262626262625  2.914408602150538 5.484848484848483  3.2929032258064517 5.484848484848484  C 3.6713978494623665 5.484848484848483  3.9931182795698925 5.626262626262625  4.258064516129032 5.909090909090909  L 8.430967741935484 10.378787878787879  L 17.741935483870968 0.4242424242424243  C 18.00688172043011 0.14141414141414077  18.328602150537638 0  18.70709677419355 0  C 19.085591397849463 0  19.407311827956992 0.14141414141414077  19.67225806451613 0.4242424242424243  L 21.60258064516129 2.4848484848484853  Z " fill-rule="nonzero" fill="#000000" stroke="none" transform="matrix(1 0 0 1 713 268 )" />
  </g>
</svg>